<svg xmlns="http://www.w3.org/2000/svg" viewBox="0 0 111.06 124.26"><path fill="#035d69" d="M0,89.23a32.88,32.88,0,0,1,9.84-24Q19.67,55.29,37,53.79v-.17a52.67,52.67,0,0,1-8.59-.83,39.84,39.84,0,0,1-8.34-2.53,28.1,28.1,0,0,1-7.35-4.44,19.6,19.6,0,0,1-5.06-7,23.55,23.55,0,0,1-1.95-9.8,27.22,27.22,0,0,1,1.08-7.51,27.4,27.4,0,0,1,3.73-7.72,29.61,29.61,0,0,1,6.6-7A31.82,31.82,0,0,1,27.43,1.91,49.52,49.52,0,0,1,41.67,0,41.77,41.77,0,0,1,55.16,2a26,26,0,0,1,8.92,4.73A23.3,23.3,0,0,1,69,12.82a23.69,23.69,0,0,1,2.37,5.44,18.58,18.58,0,0,1,.49,4.32A12.35,12.35,0,0,1,68.73,31q-3.15,3.57-9,3.57a10.38,10.38,0,0,1-7.85-3.27,12,12,0,0,1-3.11-8.6,10.48,10.48,0,0,1,3-7.63A11.72,11.72,0,0,1,60,11.79l-.09-.33a11.14,11.14,0,0,0-5.6-4.9,21.74,21.74,0,0,0-9.09-1.83q-9.37,0-14,5.94T26.56,27.06q0,11.86,5.81,18.26t16,6.39h1.17v4.57h-1.5a30.78,30.78,0,0,0-9.67,1.41,18.8,18.8,0,0,0-7,3.9A28.44,28.44,0,0,0,26.81,67,22.58,22.58,0,0,0,24,73.54a48.5,48.5,0,0,0-1.33,6.6,51.16,51.16,0,0,0-.37,6.27q0,15.69,6.55,24t19.26,8.34A34.94,34.94,0,0,0,55.2,118a32.54,32.54,0,0,0,8.3-3.2,30.07,30.07,0,0,0,8-6.14,30.13,30.13,0,0,0,5.9-10.3,43.28,43.28,0,0,0,2.4-14.94l-.08-4.56-3.4.08H59.68a37.86,37.86,0,0,0-7.14.58A20.08,20.08,0,0,0,48,80.85a6.28,6.28,0,0,0-2.45,2,6.43,6.43,0,0,0-1.08,2,7.86,7.86,0,0,0-.21,1.91A3.85,3.85,0,0,0,46,90.4h.25a7.08,7.08,0,0,1,3.23-2.83,9.65,9.65,0,0,1,4-1,9.41,9.41,0,0,1,6.35,2.24,8,8,0,0,1,2.61,6.39,8.43,8.43,0,0,1-2.78,6.52,9.45,9.45,0,0,1-6.6,2.53,12.84,12.84,0,0,1-9.13-3.7q-3.9-3.69-3.9-12a31.46,31.46,0,0,1,.17-3.4,24.83,24.83,0,0,1,1-4.36,20.67,20.67,0,0,1,2.12-4.9,22.87,22.87,0,0,1,3.94-4.65,23.72,23.72,0,0,1,6.14-4.11,41,41,0,0,1,9.05-2.78,62,62,0,0,1,12.33-1.12H91.39a37.71,37.71,0,0,0,7.14-.58,20.35,20.35,0,0,0,4.57-1.33,6.16,6.16,0,0,0,2.44-2,6.43,6.43,0,0,0,1.08-2,7.8,7.8,0,0,0,.21-1.91,3.83,3.83,0,0,0-1.74-3.65h-.25a7.09,7.09,0,0,1-3.24,2.82,9.67,9.67,0,0,1-4,1,9.4,9.4,0,0,1-6.35-2.25A7.93,7.93,0,0,1,88.65,47a8.42,8.42,0,0,1,2.78-6.51A9.49,9.49,0,0,1,98,37.93a12.86,12.86,0,0,1,9.13,3.7q3.9,3.69,3.9,12a27.71,27.71,0,0,1-.24,3.7,42.81,42.81,0,0,1-1,4.64,14.92,14.92,0,0,1-2.61,5.32,31.57,31.57,0,0,1-4.65,4.81A24.07,24.07,0,0,1,95,76.16a48.36,48.36,0,0,1-10.83,2.37c.17,1.82.25,3.56.25,5.22a51.24,51.24,0,0,1-2.37,16,37,37,0,0,1-7.14,12.78,31.09,31.09,0,0,1-12.74,8.63,50.94,50.94,0,0,1-18.42,3.07A68.8,68.8,0,0,1,23,121.48q-8.76-2.78-13.66-7.76a31.17,31.17,0,0,1-7.14-11A38.61,38.61,0,0,1,0,89.23Z" /></svg>