<svg xmlns="http://www.w3.org/2000/svg" viewBox="0 0 407.67 407.67"><path d="M375.59,178.68c17.29-32.71,15.18-67.2-6.08-99.76a154.73,154.73,0,0,0-37.05-39,7.52,7.52,0,0,0-9,.33c-25.17,20.33-52.9,54.18-78.06,95.32-23.15,37.84-40.81,76.85-47.25,104.35-4.49,19.18-14.85,28.49-31.67,28.49h0c-12.95,0-24.83-5.61-24.93-5.66a7.51,7.51,0,0,0-5.77-.33L123,267a23,23,0,0,0-.65-9.9c-3.17-10.73-13.88-17.94-26.67-17.94a35.15,35.15,0,0,0-9.93,1.45A33.18,33.18,0,0,0,67.7,253.33,24.66,24.66,0,0,0,64,274.25a23.4,23.4,0,0,0,7.38,11.2c-15.6,5.65-29.65,10.84-36.15,13.47A32.21,32.21,0,0,0,15,328.3c0,17.79,16.32,26.59,26.24,29.07,4.17,1.38,39.25,12.2,114.69,12.2,9.49,0,19.36-.17,29.33-.52,58-2,66.26-31.78,75.06-63.3,1.3-4.66,2.65-9.49,4.18-14.37,7.64-24.33,32-51.63,47.14-66.85V353.18a7.5,7.5,0,0,0,7.5,7.5h28.64a7.51,7.51,0,0,0,7.5-7.65c0-.75-1.49-75.45,0-105.41C356.64,219.77,374.37,181.3,375.59,178.68Zm-35.3,68.2c-1.24,25.05-.49,78.76-.15,98.8h-13.5V207a7.5,7.5,0,0,0-12.45-5.63c-2.1,1.84-51.45,45.58-64,85.54-1.6,5.11-3,10.05-4.31,14.83-8.83,31.62-14.16,50.71-61.14,52.34-9.8.34-19.49.51-28.81.51-75.89,0-109.81-11.38-110.12-11.49s-.49-.16-.74-.22S30,339,30,328.3a17.26,17.26,0,0,1,10.84-15.47c8.42-3.42,30.51-11.46,51.79-19.1L98.22,296c5.83,2.53,36.61,15.17,68.33,15.17,11.94,0,24-1.79,34.94-6.59,16.89-7.42,28.66-20.85,35-39.92,11.77-35.59,31.54-76.35,54.23-111.84,22-34.37,43.87-59.38,62.32-71.38q2,2.73,3.95,5.68c18.39,28.16,20.18,56.66,5.3,84.69l-.15.31C361.27,173.86,341.85,215.18,340.29,246.88ZM138,277.56c5.14,2.07,16.23,5.86,28.47,5.87h0c23.79,0,40.23-14.24,46.27-40.08,12-51.2,65.44-144.26,115.63-187.65a148.35,148.35,0,0,1,15,14.15c-20,13.59-42.86,39.73-65.35,74.89-23.34,36.5-43.69,78.49-55.84,115.21-5,15.07-13.72,25.17-26.72,30.88-26.53,11.67-63.44,1.52-81.38-4.78C124.87,282.21,133.73,279.07,138,277.56ZM80.06,261.82A18.47,18.47,0,0,1,90,255a20,20,0,0,1,5.69-.84c6.08,0,11,2.89,12.28,7.18,1.7,5.8-3.64,12.7-11.67,15.07a20.28,20.28,0,0,1-5.68.83c-6.08,0-11-2.88-12.28-7.18C77.33,266.54,79,263.39,80.06,261.82Z"/></svg>
