<svg xmlns="http://www.w3.org/2000/svg" viewBox="0 0 407.67 407.67"><polygon points="265.07 167.21 266.54 221.49 247.76 225.02 226.59 200.44 228.44 231.11 211.42 235.93 209.99 181.23 228.81 176.13 249.84 201.4 248.19 170.57 265.07 167.21" /><path d="M59.42,289.7c-31.19-9.36-48.32-29.57-49.91-38.32s-3-39.8,13.48-50.9,48.93-4.7,71.55-11.82,72.08-41.84,72.08-41.84,59.75-40.21,66.13-44.41c7.15-4.69,16.53-13.53,23.82-10.59,7,2.81,16.22,25.23,16.26,37.49,9.92,7.05,32.31,23.25,44.88,23.25,8.2,0,16.62-24.81,30.37-22.82,17.55,2.54,23,1.56,32.67,25.66,11.93,29.76,11.26,30.46,13.37,48.44s4.54,69.19-6,79.15c-10.28,9.71-14.36,13.51-71.32,12.46-73.11-1.36-64.58-16.84-82.44-16.41s-28,16.09-46.42,16.54S93.45,296.44,59.42,289.7Z" fill="none" stroke-miterlimit="10" stroke-width="15"/><path d="M229.67,139.78c-19.25-28.33-34.23-34.92-47.35-27.24-11.45,6.69-6.17,19.8-6.17,19.8" fill="none" stroke-linecap="round" stroke-miterlimit="10" stroke-width="15"/><path d="M192.9,160.53c-19.25-28.33-28.23-34.31-42.19-27.69-12,5.68-7.22,18.83-7.22,18.83" fill="none" stroke-linecap="round" stroke-miterlimit="10" stroke-width="15"/><path d="M157.88,182c-19.25-28.34-20-33.39-37.26-27.79-12.61,4.1-12.15,18.93-12.15,18.93" fill="none" stroke-linecap="round" stroke-miterlimit="10" stroke-width="15"/><path d="M361.57,126.09s6.06-33,23.11-24.33c17.33,8.86-10,29.84-10,29.84" fill="none" stroke-miterlimit="10" stroke-width="15"/></svg>