<svg xmlns="http://www.w3.org/2000/svg" viewBox="0 0 407.67 407.67"><path d="M389.77,150.44a7.49,7.49,0,0,0-9.41-3.18c-.57.24-56.93,23.84-89.92,24.5h-.84c-31.14,0-66.67-33.17-67-33.5a7.51,7.51,0,0,0-9.87-.38L195,152.25c1.29-6,3.82-12.65,8.72-16.74a7.5,7.5,0,0,0-9.6-11.52c-9,7.53-12.82,19.22-14.39,28.27a28.49,28.49,0,0,0-34.4,40.21l-37.25,30.18c-5.06.12-17.35.39-33.07.39-11.4,0-22.49-.14-33-.41l-1.1,0C16.82,222.61,2.28,244,.28,253c-1.16,5.17,1.54,8.48,4.21,9.74C24.62,272.2,112.28,285.42,171,285.42c30.28,0,49.61-3.35,59.1-10.24,15.31-11.12,34.3-17.36,50.89-20.87v17.83a7.5,7.5,0,0,0,7.5,7.5H398.6a7.5,7.5,0,0,0,7.5-7.5v-29c0-.06,0-.13,0-.19C413.82,193.05,390.77,152.16,389.77,150.44ZM296,251.71a193.09,193.09,0,0,1,24.22-1.91H391.1v14.84H296V251.71Zm-134.5-82.5a13.52,13.52,0,0,1,15.05-2L157.5,182.61A13.51,13.51,0,0,1,161.51,169.21ZM221.3,263c-3.06,2.22-14.08,7.38-50.29,7.38-52.64,0-127.54-11-153.6-18.92,3.79-5.7,11.84-14.18,24.23-13.88,10.6.28,21.83.42,33.36.42,20.93,0,35.91-.47,36.06-.47a7.58,7.58,0,0,0,4.48-1.67l40.55-32.85,18,15.8a7.5,7.5,0,0,0,9.9-11.26l-16-14.11,18-14.6,26.77,23.55a7.5,7.5,0,1,0,9.91-11.27l-24.85-21.85,19.46-15.77c11.93,10.07,43.35,33.83,73.53,33.22,29.19-.59,72.5-16.56,88.9-23C384.92,175.34,395.31,203,392,234.8H320.23C314.09,234.8,259.11,235.59,221.3,263Z"/></svg>
